<svg width="15" height="15" viewBox="0 0 15 15" fill="none" xmlns="http://www.w3.org/2000/svg">
<path fill-rule="evenodd" clip-rule="evenodd" d="M5.90538 1.47635C3.45929 1.47635 1.47635 3.45929 1.47635 5.90538C1.47635 8.35147 3.45929 10.3344 5.90538 10.3344C7.12863 10.3344 8.23488 9.83949 9.03719 9.03719C9.83949 8.23488 10.3344 7.12863 10.3344 5.90538C10.3344 3.45929 8.35147 1.47635 5.90538 1.47635ZM0 5.90538C0 2.64393 2.64393 0 5.90538 0C9.16684 0 11.8108 2.64393 11.8108 5.90538C11.8108 7.26974 11.3474 8.52686 10.5705 9.52656L14.7838 13.7399C15.0721 14.0281 15.0721 14.4955 14.7838 14.7838C14.4955 15.0721 14.0281 15.0721 13.7399 14.7838L9.52656 10.5705C8.52686 11.3474 7.26974 11.8108 5.90538 11.8108C2.64393 11.8108 0 9.16684 0 5.90538Z" fill="#383838"/>
</svg>
